<?xml version="1.0" encoding="UTF-8"?>
<!-- Generated by Pixelmator Pro 3.6.14 -->
<svg width="500" height="200" viewBox="0 0 500 200" xmlns="http://www.w3.org/2000/svg">
    <g id="g1">
        <g id="g2">
            <path id="AI----" fill="#ffffff" fill-rule="evenodd" stroke="none" d="M 475.888031 167.981995 L 467.698639 167.981995 L 467.698639 167.15184 L 476.852844 167.15184 L 476.852844 167.824936 C 476.852844 174.174515 472.8815 177.719513 467.182587 178.392609 L 467.182587 177.540024 C 472.343048 176.911804 475.888031 173.613602 475.888031 167.981995 Z M 483.224854 166.882599 L 483.224854 172.761002 L 486.433289 172.761002 L 486.433289 173.613602 L 483.224854 173.613602 L 483.224854 180.56897 L 482.282501 180.56897 L 482.282501 166.882599 Z M 469.875031 180.613846 L 469.875031 185.864029 L 483.606262 185.864029 L 483.606262 186.716629 L 468.910217 186.716629 L 468.910217 180.613846 Z M 454.595612 170.315414 C 453.361633 172.379578 450.063385 174.152084 446.338928 174.645691 L 446.338928 173.74823 C 449.906372 173.299484 454.146881 171.257751 454.146881 168.430725 L 454.146881 167.039658 L 455.089233 167.039658 L 455.089233 168.430725 C 455.089233 171.257751 459.127838 173.232178 462.897217 173.74823 L 462.897217 174.645691 C 459.060516 174.129639 455.78476 172.357147 454.595612 170.315414 Z M 445.733124 178.392609 L 445.733124 177.540024 L 463.525421 177.540024 L 463.525421 178.392609 L 455.336029 178.392609 L 455.336029 182.633148 L 454.393677 182.633148 L 454.393677 178.392609 Z M 448.088989 181.354263 L 448.088989 185.864029 L 462.515778 185.864029 L 462.515778 186.716629 L 447.146637 186.716629 L 447.146637 181.354263 Z M 427.783813 176.373322 L 418.405243 176.373322 L 418.405243 167.15184 L 427.581848 167.15184 L 427.581848 167.981995 L 419.370056 167.981995 L 419.370056 175.520721 L 427.940826 175.520721 C 430.162079 175.520721 432.001892 175.139297 433.280731 174.174515 L 433.280731 166.882599 L 434.223114 166.882599 L 434.223114 178.100937 L 433.280731 178.100937 L 433.280731 175.027115 C 432.069183 175.991898 430.162079 176.373322 427.783813 176.373322 Z M 426.998505 187.120483 C 424.418274 187.120483 422.197052 186.716629 420.82843 185.774292 C 419.886047 185.146057 419.370056 184.293472 419.370056 183.194061 C 419.370056 182.072235 419.886047 181.219635 420.82843 180.591415 C 422.197052 179.649078 424.418274 179.222778 426.998505 179.222778 C 429.623596 179.222778 431.822357 179.649078 433.19101 180.591415 C 434.110931 181.219635 434.649384 182.072235 434.649384 183.194061 C 434.649384 184.293472 434.110931 185.146057 433.19101 185.774292 C 431.822357 186.716629 429.623596 187.120483 426.998505 187.120483 Z M 426.998505 180.075363 C 424.597778 180.075363 422.578491 180.479233 421.411774 181.264511 C 420.716217 181.780563 420.312347 182.386353 420.312347 183.194061 C 420.312347 183.979355 420.716217 184.607574 421.411774 185.101181 C 422.578491 185.908905 424.597778 186.312775 426.998505 186.312775 C 429.421631 186.312775 431.440948 185.908905 432.585205 185.101181 C 433.325653 184.607574 433.729523 183.979355 433.729523 183.194061 C 433.729523 182.386353 433.325653 181.780563 432.585205 181.264511 C 431.440948 180.479233 429.421631 180.075363 426.998505 180.075363 Z M 396.97821 171.773788 C 396.97821 170.13591 397.471802 168.812149 398.324432 167.959564 C 398.997498 167.331329 399.894958 166.994781 401.016785 166.994781 C 402.116211 166.994781 403.036102 167.331329 403.686768 167.959564 C 404.584229 168.812149 405.05542 170.13591 405.05542 171.773788 C 405.05542 173.434113 404.584229 174.757874 403.686768 175.565598 C 403.036102 176.216263 402.116211 176.552811 401.016785 176.552811 C 399.894958 176.552811 398.997498 176.216263 398.324432 175.565598 C 397.471802 174.757874 396.97821 173.434113 396.97821 171.773788 Z M 397.898102 171.773788 C 397.898102 173.119995 398.23468 174.241837 398.930176 174.937363 C 399.446259 175.453415 400.164215 175.745087 401.016785 175.745087 C 401.891846 175.745087 402.609833 175.453415 403.103394 174.937363 C 403.77652 174.241837 404.135498 173.119995 404.135498 171.773788 C 404.135498 170.427597 403.77652 169.328186 403.103394 168.63266 C 402.609833 168.116608 401.891846 167.824936 401.016785 167.824936 C 400.164215 167.824936 399.446259 168.116608 398.930176 168.63266 C 398.23468 169.328186 397.898102 170.427597 397.898102 171.773788 Z M 408.622833 186.380081 L 407.725372 186.380081 L 407.725372 183.508179 L 404.157928 183.508179 L 404.157928 182.655594 L 407.725372 182.655594 L 407.725372 166.994781 L 408.622833 166.994781 Z M 411.965912 166.882599 L 412.908234 166.882599 L 412.908234 186.649323 L 411.965912 186.649323 Z M 401.914276 179.873444 L 401.061676 179.873444 L 401.061676 186.671753 L 400.141785 186.671753 L 400.141785 179.873444 L 396.372406 179.873444 L 396.372406 179.043274 L 401.936707 179.043274 C 403.574585 179.043274 405.07785 178.88623 406.154816 178.302872 L 406.154816 179.133026 C 405.122711 179.738815 403.619476 179.873444 401.914276 179.873444 Z M 378.22113 177.741959 L 368.84259 177.741959 L 368.84259 167.15184 L 377.839691 167.15184 L 377.839691 167.959564 L 369.807343 167.959564 L 369.807343 171.975723 L 377.323669 171.975723 L 377.323669 172.783447 L 369.807343 172.783447 L 369.807343 176.889359 L 378.086517 176.889359 C 380.464813 176.889359 382.416779 176.530365 383.71814 175.565598 L 383.71814 166.882599 L 384.660492 166.882599 L 384.660492 178.661865 L 383.71814 178.661865 L 383.71814 176.395752 C 382.506531 177.360535 380.599426 177.741959 378.22113 177.741959 Z M 383.71814 186.96344 L 383.71814 181.915176 L 369.874695 181.915176 L 369.874695 181.107452 L 384.660492 181.107452 L 384.660492 186.96344 Z M 354.483124 177.382965 L 347.168762 177.382965 L 347.168762 167.15184 L 354.483124 167.15184 Z M 353.563202 176.530365 L 353.563202 167.981995 L 348.066193 167.981995 L 348.066193 176.530365 Z M 357.71402 180.209991 L 357.71402 166.994781 L 358.633911 166.994781 L 358.633911 172.222534 L 362.493011 172.222534 L 362.493011 166.882599 L 363.435364 166.882599 L 363.435364 180.591415 L 362.493011 180.591415 L 362.493011 173.052689 L 358.633911 173.052689 L 358.633911 180.209991 Z M 363.839203 186.716629 L 348.739319 186.716629 L 348.739319 180.613846 L 349.681671 180.613846 L 349.681671 185.864029 L 363.839203 185.864029 Z M 327.244995 173.725784 L 327.244995 178.504807 L 341.873688 178.504807 L 341.873688 179.312515 L 334.469604 179.312515 L 334.469604 184.876816 L 342.748718 184.876816 L 342.748718 185.68454 L 325.180817 185.68454 L 325.180817 184.876816 L 333.549683 184.876816 L 333.549683 179.312515 L 326.325043 179.312515 L 326.325043 172.91806 L 340.68454 172.91806 L 340.68454 168.116608 L 326.325043 168.116608 L 326.325043 167.264023 L 341.604462 167.264023 L 341.604462 173.725784 Z M 299.401062 167.039658 L 299.401062 172.536636 L 313.558594 172.536636 L 313.558594 173.34436 L 298.45871 173.34436 L 298.45871 167.039658 Z M 297.045227 178.190689 L 297.045227 177.360535 L 314.837494 177.360535 L 314.837494 178.190689 Z M 299.401062 180.950394 L 299.401062 185.864029 L 313.82782 185.864029 L 313.82782 186.716629 L 298.45871 186.716629 L 298.45871 180.950394 Z M 285.086426 185.235809 L 276.448303 185.235809 L 276.448303 175.745087 L 284.121674 175.745087 L 284.121674 168.116608 L 276.448303 168.116608 L 276.448303 167.264023 L 285.063995 167.264023 L 285.063995 176.575241 L 277.368225 176.575241 L 277.368225 184.383209 L 285.198639 184.383209 C 287.509613 184.383209 289.708405 183.687683 290.964874 182.431213 L 290.964874 166.882599 L 291.907196 166.882599 L 291.907196 186.626877 L 290.964874 186.626877 L 290.964874 183.283813 C 289.820587 184.517838 287.509613 185.235809 285.086426 185.235809 Z M 269.582703 174.017456 L 269.582703 168.116608 L 255.066147 168.116608 L 255.066147 167.264023 L 270.525024 167.264023 L 270.525024 173.927719 C 270.525024 176.440628 270.210907 179.133026 269.807068 181.017715 L 268.842285 181.017715 C 269.291016 179.133026 269.582703 176.418182 269.582703 174.017456 Z M 254.078949 185.68454 L 254.078949 184.876816 L 271.646881 184.876816 L 271.646881 185.68454 Z M 228.119675 173.725784 L 228.119675 178.504807 L 242.748413 178.504807 L 242.748413 179.312515 L 235.344299 179.312515 L 235.344299 184.876816 L 243.623444 184.876816 L 243.623444 185.68454 L 226.055511 185.68454 L 226.055511 184.876816 L 234.424393 184.876816 L 234.424393 179.312515 L 227.199783 179.312515 L 227.199783 172.91806 L 241.559265 172.91806 L 241.559265 168.116608 L 227.199783 168.116608 L 227.199783 167.264023 L 242.479156 167.264023 L 242.479156 173.725784 Z M 222.084229 168.094177 L 221.141876 168.094177 L 221.141876 185.527481 L 222.084229 185.527481 Z M 205.884933 185.527481 L 207.567688 180.972839 L 216.183365 180.972839 L 217.866135 185.527481 L 218.875778 185.527481 L 212.34671 168.094177 L 211.381927 168.094177 L 204.852844 185.527481 Z M 207.85936 180.120239 L 211.853088 169.350632 L 215.846817 180.120239 Z"/>
            <path id="Whyding-" fill="#ffffff" fill-rule="evenodd" stroke="none" d="M 490.222748 132.879028 L 500 93.961708 L 494.12088 96.453949 L 493.545746 98.690582 C 491.543427 96.432648 489.029877 95.303688 486.005096 95.303688 C 482.767334 95.303688 479.433685 96.741516 476.004181 99.61718 C 472.574677 102.492867 469.730988 106.103378 467.473053 110.448845 C 465.215118 114.794319 464.086151 118.969307 464.086151 122.973961 C 464.086151 125.785723 464.821045 128.096903 466.290833 129.907501 C 467.76062 131.718109 469.688385 132.623413 472.074127 132.623413 C 477.953247 132.623413 483.747162 127.298149 489.455902 116.647499 L 484.535309 137.735703 C 483.342468 142.89061 482.1922 146.447891 481.084534 148.407608 C 480.232483 150.026494 478.911804 151.389771 477.122498 152.497437 C 475.333191 153.605103 473.565186 154.158936 471.818512 154.158936 C 469.091949 154.158936 466.344086 152.838287 463.574921 150.196899 L 460.315857 154.414551 C 462.616364 156.118637 465.279022 156.970688 468.303802 156.970688 C 471.626801 156.970688 474.726105 156.150589 477.601776 154.510406 C 480.477448 152.870209 482.916443 150.516449 484.918732 147.449051 C 485.983795 145.830154 486.889099 144.040853 487.634644 142.081146 C 488.380188 140.121429 489.242889 137.054077 490.222748 132.879028 Z M 429.258667 96.965179 L 422.484894 132.367798 L 426.766449 131.025818 L 427.341583 129.300415 C 429.045654 124.060295 430.579346 119.959862 431.942627 116.99897 C 433.305908 114.038078 435.031311 111.045303 437.118835 108.020508 C 441.421661 101.715324 445.042877 98.562775 447.982452 98.562775 C 448.791901 98.562775 449.430939 98.797081 449.899567 99.265709 C 450.368164 99.734337 450.602478 100.415977 450.602478 101.310631 C 450.602478 102.162674 450.432068 103.653763 450.091278 105.783882 L 447.59903 119.331451 C 447.087799 122.015401 446.832184 124.039017 446.832184 125.402298 C 446.832184 127.40461 447.290161 129.076752 448.206116 130.418732 C 449.12207 131.760712 450.240387 132.431702 451.561035 132.431702 C 452.540894 132.431702 453.605957 131.931122 454.756226 130.929962 C 455.906494 129.928802 457.695801 128.001038 460.124146 125.146683 L 460.763184 124.443741 L 459.740723 123.549095 C 456.84375 126.701691 454.734924 128.277954 453.414246 128.277954 C 452.6474 128.277954 452.029663 127.862582 451.561035 127.031837 C 451.092407 126.201096 450.858093 125.10408 450.858093 123.740799 C 450.858093 122.377528 451.177612 120.417819 451.81665 117.861671 L 452.455688 115.369423 L 454.372803 107.573181 L 455.011841 104.889229 C 455.480469 103.09993 455.714783 101.715347 455.714783 100.735497 C 455.714783 98.988792 455.224854 97.593567 454.244995 96.549805 C 453.265137 95.50605 451.987061 94.984169 450.410767 94.984169 C 447.215607 94.984169 443.871307 96.922554 440.377899 100.7994 C 436.884521 104.676239 433.369812 110.342293 429.833801 117.797768 L 435.329529 94.345131 L 429.258667 96.965179 Z M 486.260712 97.092987 C 488.987274 97.092987 491.181305 98.690582 492.842804 101.885757 L 492.139862 104.761421 C 490.861786 110.086746 489.051178 114.687767 486.708038 118.564606 C 484.663116 121.972824 482.607574 124.614151 480.541351 126.488655 C 478.475128 128.363159 476.589966 129.300415 474.885864 129.300415 C 473.224365 129.300415 471.935669 128.693329 471.019714 127.479164 C 470.10376 126.264999 469.645782 124.59285 469.645782 122.46273 C 469.645782 119.310127 470.44458 115.742218 472.042175 111.758873 C 473.63974 107.77552 475.567505 104.463203 477.825439 101.821854 C 480.594604 98.669281 483.406372 97.092987 486.260712 97.092987 Z M 390.8526 115.369423 L 407.787048 41.688538 L 400.885468 44.947617 L 390.469177 97.156891 C 388.296448 95.66581 385.953308 94.920265 383.439789 94.920265 C 380.031586 94.920265 376.612732 96.326141 373.183228 99.137901 C 369.753754 101.949661 366.931335 105.517593 364.716003 109.841759 C 362.500671 114.165932 361.393036 118.436775 361.393036 122.654442 C 361.393036 125.679237 362.095947 128.075592 363.501831 129.843597 C 364.907715 131.611603 366.824829 132.495605 369.253174 132.495605 C 373.300385 132.495605 377.475433 129.726471 381.77829 124.188126 C 384.164001 121.035522 385.910706 118.117279 387.018372 115.433327 L 386.31543 119.075836 C 385.718994 122.015427 385.420776 124.039017 385.420776 125.146683 C 385.420776 127.021187 385.889404 128.682678 386.82666 130.131165 C 387.763916 131.579651 388.935486 132.303894 390.34137 132.303894 C 390.937805 132.303894 391.480988 132.165436 391.970917 131.888519 C 392.460846 131.611603 393.238342 130.940613 394.303406 129.875549 L 396.412201 127.766731 C 396.454803 127.724129 397.285553 126.808174 398.904449 125.018875 L 399.41568 124.443741 L 398.457123 123.549095 C 398.371918 123.59169 398.308014 123.634293 398.265411 123.676895 L 396.284393 125.657913 C 394.70813 127.319405 393.36615 128.150146 392.258484 128.150146 C 391.406433 128.150146 390.735443 127.724124 390.245514 126.872078 C 389.755585 126.020035 389.51062 124.912369 389.51062 123.549095 C 389.51062 122.015404 389.957947 119.288872 390.8526 115.369423 Z M 410.151489 115.369423 L 415.775024 94.345131 L 409.512451 96.965179 L 405.486542 119.331451 C 404.975311 122.100606 404.719696 124.124222 404.719696 125.402298 C 404.719696 127.40461 405.177673 129.076752 406.093597 130.418732 C 407.009552 131.760712 408.127869 132.431702 409.448547 132.431702 C 410.428406 132.431702 411.493469 131.931122 412.643738 130.929962 C 413.794006 129.928802 415.583313 128.001038 418.011627 125.146683 L 418.650665 124.443741 L 417.628204 123.549095 C 414.731262 126.701691 412.622437 128.277954 411.301758 128.277954 C 410.534912 128.277954 409.917175 127.851931 409.448547 126.999886 C 408.979919 126.147842 408.745605 125.040176 408.745605 123.676895 C 408.745605 121.589378 409.214233 118.820244 410.151489 115.369423 Z M 387.529602 97.572266 C 388.722473 98.275208 389.51062 99.201805 389.894043 100.352074 L 389.255005 103.61116 C 388.828979 105.570869 388.126038 108.169594 387.146179 111.407402 C 386.336731 113.920944 385.229065 116.349281 383.823212 118.692413 C 381.735687 122.143234 379.658813 124.784561 377.59259 126.616463 C 375.526367 128.448364 373.598602 129.364319 371.809326 129.364319 C 370.275635 129.364319 369.072113 128.746582 368.198761 127.511116 C 367.325409 126.27565 366.888733 124.635452 366.888733 122.590538 C 366.888733 120.247406 367.325409 117.638031 368.198761 114.762344 C 369.072113 111.886658 370.19043 109.23468 371.553711 106.806343 C 373.428192 103.525932 375.419861 100.991112 377.528687 99.201805 C 379.637512 97.412506 381.693085 96.517853 383.695404 96.517853 C 385.058655 96.517853 386.336731 96.869324 387.529602 97.572266 Z M 420.312164 70.317368 C 419.630524 69.635727 418.73587 69.294907 417.628204 69.294907 C 416.563171 69.294907 415.668518 69.657028 414.944275 70.381271 C 414.220032 71.105515 413.85791 71.978867 413.85791 73.00132 C 413.85791 73.981171 414.241333 74.854523 415.008179 75.621368 C 415.775024 76.388214 416.648376 76.771629 417.628204 76.771629 C 418.650665 76.771629 419.524017 76.409515 420.24826 75.685272 C 420.972504 74.961029 421.334625 74.066376 421.334625 73.00132 C 421.334625 71.893661 420.993805 70.999008 420.312164 70.317368 Z M 317.491241 154.414551 L 320.622498 150.196899 C 323.093445 152.838287 325.883911 154.158936 328.993866 154.158936 C 332.274261 154.158936 334.915619 152.859589 336.917938 150.260803 C 338.920258 147.662064 340.560425 143.40184 341.838501 137.480087 L 344.778076 124.252029 C 340.091797 129.747772 335.852875 132.495605 332.061249 132.495605 C 329.845917 132.495605 328.109894 131.813965 326.853119 130.450684 C 325.596344 129.087402 324.967957 127.255501 324.967957 124.954971 C 324.967957 123.421288 325.159668 121.738487 325.543091 119.906586 L 329.888519 96.965179 L 336.087189 94.345131 L 329.888519 120.098297 C 329.377289 122.185814 329.121674 123.740799 329.121674 124.76326 C 329.121674 126.211746 329.55835 127.393959 330.431702 128.309906 C 331.305054 129.225861 332.465973 129.683838 333.914459 129.683838 C 335.490753 129.683838 337.226807 128.991547 339.12262 127.606972 C 341.018402 126.222397 343.137878 124.145523 345.481018 121.376366 L 350.976715 96.965179 L 356.983673 94.345131 L 347.653748 131.920471 C 346.546082 136.43634 345.491669 139.972321 344.490509 142.528473 C 343.489349 145.084615 342.32843 147.214737 341.007751 148.918839 C 336.832733 154.286758 331.74173 156.970688 325.734802 156.970688 C 322.241394 156.970688 319.49353 156.118637 317.491241 154.414551 Z M 287.58432 48.334518 L 281.833008 50.762848 C 281.918213 53.915436 281.960815 55.704742 281.960815 56.130753 C 281.960815 62.904587 281.119415 70.072357 279.436615 77.634331 C 277.753815 85.196304 275.336121 92.534485 272.183563 99.649132 C 269.030975 106.763786 265.260651 113.452293 260.87262 119.714874 C 258.8703 122.569234 257.176849 124.656754 255.792267 125.977432 C 254.407684 127.298103 253.225479 127.958443 252.245621 127.958443 C 251.308365 127.958443 250.679977 127.351357 250.360458 126.137192 C 250.040939 124.923019 249.88118 122.590561 249.88118 119.13974 C 249.88118 115.348099 249.987686 109.554245 250.200699 101.75795 C 250.328506 98.051521 250.445663 94.590096 250.55217 91.373611 C 250.658676 88.157127 250.839737 84.567902 251.095352 80.60585 C 251.350967 76.643799 251.56398 73.619057 251.73439 71.53154 L 253.779312 51.401886 L 253.90712 49.932114 L 247.708466 52.616058 L 247.516754 54.14975 C 246.749908 59.645477 246.078918 63.863098 245.503784 66.802673 C 244.92865 69.742233 244.151154 72.969345 243.171295 76.48407 C 242.191452 79.998787 241.211594 83.098091 240.231735 85.782043 C 238.186813 91.490791 235.726532 97.252701 232.850861 103.067978 C 229.975204 108.883232 227.152786 113.878319 224.383636 118.053383 C 222.125702 121.504196 220.251205 123.985764 218.760117 125.498154 C 217.269028 127.010536 215.96965 127.766731 214.862 127.766731 C 214.052551 127.766731 213.488068 127.362007 213.168549 126.552559 C 212.84903 125.743118 212.68927 124.337234 212.68927 122.334923 C 212.68927 121.312462 212.710571 120.566925 212.753174 120.098297 L 214.798096 68.272446 C 214.840698 67.036972 214.862 65.418091 214.862 63.415771 C 214.862 51.955673 211.624252 46.225693 205.148636 46.225693 C 202.592499 46.225693 200.217407 47.333359 198.023392 49.548691 C 195.829361 51.764008 193.912247 55.086975 192.272064 59.517654 C 190.631866 63.948334 189.34314 69.209656 188.405884 75.301849 L 193.198669 78.497032 C 194.221115 71.382385 195.6483 64.8004 197.480209 58.750809 C 198.67308 54.83136 199.844635 52.083527 200.994904 50.507233 C 202.145172 48.930954 203.551056 48.142807 205.21254 48.142807 C 207.939102 48.142807 209.302383 50.826736 209.302383 56.194656 C 209.302383 57.685745 209.23848 59.624161 209.110672 62.009888 L 206.810135 121.9515 L 206.810135 123.868607 C 206.810135 126.637764 206.89534 128.448364 207.06575 129.300415 C 207.704788 131.941772 209.302383 133.262451 211.858521 133.262451 C 214.03125 133.262451 216.310471 131.877869 218.696213 129.108704 C 222.913849 124.337212 227.110184 118.117325 231.285233 110.448845 C 237.888641 98.477524 242.745285 86.399826 245.855255 74.215485 L 245.727448 76.196503 C 245.344025 80.371559 244.981903 86.463638 244.641083 94.472939 C 244.300262 102.865662 244.129852 109.021645 244.129852 112.941086 C 244.08725 114.730392 244.065948 117.456924 244.065948 121.12075 C 244.065948 125.72184 244.438721 128.87439 245.184265 130.578491 C 245.92981 132.282593 247.303741 133.134644 249.306046 133.134644 C 250.413712 133.134644 251.542679 132.793823 252.692947 132.112183 C 253.843216 131.430542 255.206482 130.258972 256.782776 128.597473 C 259.211121 126.083939 261.937683 122.366898 264.962433 117.446297 C 267.987213 112.525688 270.884186 107.147179 273.65332 101.310631 C 282.812897 81.926437 287.456512 64.267914 287.58432 48.334518 Z M 282.152527 132.367798 L 299.150879 44.947617 L 305.860779 41.688538 L 288.159454 119.523163 C 288.329865 119.224945 288.41507 119.033234 288.41507 118.948029 L 289.884857 115.625038 C 292.398407 109.91629 295.550964 104.974457 299.34259 100.7994 C 302.921204 96.922554 306.2229 94.984169 309.24765 94.984169 C 310.866547 94.984169 312.165924 95.50605 313.145782 96.549805 C 314.125641 97.593567 314.61557 98.988792 314.61557 100.735497 C 314.61557 101.715347 314.381256 103.09993 313.912628 104.889229 L 313.27359 107.573181 L 311.292572 115.369423 L 310.717438 117.861671 C 310.0784 120.417819 309.758881 122.377528 309.758881 123.740799 C 309.758881 125.10408 309.993195 126.201096 310.461823 127.031837 C 310.93045 127.862582 311.548187 128.277954 312.315033 128.277954 C 313.635712 128.277954 315.744537 126.701691 318.641479 123.549095 L 319.600037 124.443741 L 319.024902 125.146683 C 316.596588 128.001038 314.796631 129.928802 313.625061 130.929962 C 312.453491 131.931122 311.399078 132.431702 310.461823 132.431702 C 309.141144 132.431702 308.012177 131.72876 307.074921 130.322876 C 306.137695 128.916992 305.669067 127.276802 305.669067 125.402298 C 305.669067 124.252029 305.945984 122.228439 306.499817 119.331451 L 308.928131 105.783882 C 309.311554 103.78157 309.503265 102.290482 309.503265 101.310631 C 309.503265 100.415977 309.268951 99.734337 308.800323 99.265709 C 308.331696 98.797081 307.692657 98.562775 306.883209 98.562775 C 305.306946 98.562775 303.496338 99.489372 301.451416 101.342583 C 299.406494 103.195786 297.350922 105.762558 295.284729 109.042969 C 293.218506 112.32338 291.418549 115.827377 289.884857 119.555115 C 288.351166 123.282852 287.200897 127.106369 286.434052 131.025818 L 282.152527 132.367798 Z"/>
            <path id="Ai--9" fill="#ffffff" fill-rule="evenodd" stroke="none" d="M 101.096725 148.20694 L 93.735802 182.532013 L 84.263947 182.532013 C 82.352669 176.436646 79.292137 170.522156 75.082191 164.788376 C 70.872261 159.054581 66.107079 154.328094 60.786526 150.608917 C 57.273937 156.084442 53.34816 160.991669 49.009068 165.330719 C 44.669979 169.6698 40.059761 173.389008 35.178314 176.488342 C 30.29685 179.587662 25.221745 181.989655 19.952839 183.694305 C 14.683934 185.398895 9.51846 186.251221 4.456186 186.251221 C 3.061484 186.251221 1.563491 186.122086 -0.037842 185.8638 L 2.441615 179.975082 C 5.179371 180.285004 7.245588 180.439987 8.64029 180.439987 C 22.793982 180.439987 35.397778 174.912918 46.452122 163.858551 C 48.724968 161.585709 51.036541 158.964188 53.386883 155.994003 C 55.737221 153.023819 58.177906 149.549973 60.709034 145.572525 C 66.339508 136.739365 71.143433 128.474579 75.120934 120.77787 L 82.404366 106.753403 C 88.138153 95.750694 92.554665 88.299484 95.653992 84.399483 C 98.753319 80.499481 106.339745 78.549461 109.387421 78.549461 C 110.368912 78.549461 111.234085 78.756134 111.983109 79.16935 C 112.732147 79.582565 113.313217 80.189514 113.726486 80.990189 C 114.139748 81.790863 114.346352 82.681892 114.346352 83.663353 C 114.346352 84.386581 114.217239 85.445496 113.958946 86.840172 C 113.700638 88.699806 113.545677 89.707069 113.494034 89.862053 L 101.639099 145.572525 L 107.140411 145.572525 L 106.598015 148.20694 Z M 89.300377 148.20694 L 62.258694 148.20694 L 62.568645 148.439362 C 67.166008 151.951965 71.117615 155.567841 74.423569 159.287064 C 77.729546 163.006226 80.95797 167.448593 84.108994 172.614182 Z M 64.350761 145.572525 L 89.842751 145.572525 L 100.845375 92.883881 C 101.207001 91.179245 101.387756 90.301109 101.387756 90.249466 C 101.697685 89.216309 101.852669 88.286591 101.852669 87.46006 C 101.852669 86.168633 101.284462 85.522987 100.148018 85.522987 C 98.753319 85.522987 97.074539 86.995155 95.111618 89.939499 C 93.148682 92.883881 89.739464 98.927505 84.88382 108.070595 C 84.160637 109.465317 82.688484 112.280525 80.467285 116.516296 C 78.607681 119.873894 77.600388 121.733482 77.445427 122.095055 L 70.007034 135.654663 C 66.907684 141.285095 65.022278 144.591019 64.350761 145.572525 Z"/>
            <path id="Ai--3" fill="#ffffff" fill-rule="evenodd" stroke="none" d="M 165.337799 74.124641 L 148.443512 137.286301 C 145.627731 147.653244 144.219925 155.972382 144.219925 162.24379 C 144.219925 166.339417 144.923828 169.666992 146.331726 172.226761 C 147.739609 174.78653 149.595398 176.066406 151.89917 176.066406 C 155.866821 176.066406 162.202103 171.330917 170.905243 161.859818 L 173.976929 164.547546 L 172.057114 166.659348 C 164.761871 175.234558 159.386414 181.025864 155.93074 184.0336 C 152.475113 187.041336 149.275452 188.545135 146.331726 188.545135 C 142.364059 188.545135 139.004486 186.529327 136.252747 182.497757 C 133.500992 178.466141 132.125153 173.442673 132.125153 167.427292 C 132.125153 163.587646 132.893082 157.508316 134.428925 149.189087 L 146.523712 81.99585 Z"/>
            <path id="Ai--8" fill="#ffffff" fill-rule="evenodd" stroke="none" d="M 157.366486 34.971588 C 160.694214 34.971588 163.381836 35.995422 165.429688 38.043274 C 167.477539 40.091125 168.501373 42.778748 168.501373 46.10643 C 168.501373 49.306198 167.413498 51.99382 165.237701 54.169632 C 163.061905 56.345474 160.438187 57.433304 157.366486 57.433304 C 154.422745 57.433304 151.799072 56.281418 149.495285 53.977631 C 147.191544 51.673889 146.039612 49.050171 146.039612 46.10643 C 146.039612 43.034729 147.127502 40.411072 149.303299 38.23526 C 151.479141 36.059402 154.166763 34.971588 157.366486 34.971588 Z"/>
            <path id="H--3" fill="#ffffff" fill-rule="evenodd" stroke="none" d="M 85.2668 52.846252 C 85.2668 52.846252 84.045792 53.343521 84.045792 53.343521 C 80.990997 54.694946 77.944641 55.605026 74.906631 56.073837 C 71.868607 56.542648 69.179268 56.548386 66.838425 56.091187 C 65.474571 55.828598 64.046181 55.381317 62.553211 54.749344 C 61.060276 54.117386 59.600891 53.342651 58.175072 52.42514 C 56.749271 51.507675 55.404381 50.474655 54.1404 49.326126 C 53.280186 48.54451 52.428158 47.612808 51.584332 46.530991 L 54.285103 45.251724 C 55.723782 47.72467 57.215546 49.662994 58.760403 51.066711 C 60.69149 52.821411 62.981647 54.004456 65.630966 54.615997 C 68.280281 55.227493 70.943771 55.206085 73.621552 54.551727 C 77.367325 53.639114 81.757545 51.752686 86.792343 48.892334 C 87.63208 48.426697 89.009315 47.598801 90.924019 46.408646 C 92.838737 45.218521 94.65905 44.052887 96.38501 42.911713 C 98.110992 41.770569 99.526169 40.803909 100.630615 40.011719 L 105.73893 36.241547 L 106.264809 35.821518 L 110.557587 37.075714 C 109.127579 38.296738 107.338585 39.648346 105.190544 41.130569 C 103.04248 42.612808 100.773766 44.095581 98.384262 45.578949 C 95.994774 47.062363 93.617729 48.470306 91.253052 49.802979 C 88.888367 51.13562 86.94973 52.122833 85.437065 52.764709 Z"/>
            <path id="Ai--7" fill="#ffffff" fill-rule="evenodd" stroke="none" d="M 110.733002 34.971588 C 114.060715 34.971588 116.748344 35.995422 118.796196 38.043274 C 120.844055 40.091125 121.867882 42.778748 121.867882 46.10643 C 121.867882 49.306198 120.780006 51.99382 118.60421 54.169632 C 116.428406 56.345474 113.804688 57.433304 110.733002 57.433304 C 107.789253 57.433304 105.165581 56.281418 102.861786 53.977631 C 100.558044 51.673889 99.406128 49.050171 99.406128 46.10643 C 99.406128 43.034729 100.494003 40.411072 102.6698 38.23526 C 104.84565 36.059402 107.533272 34.971588 110.733002 34.971588 Z"/>
        </g>
    </g>
</svg>
