<?xml version="1.0" encoding="UTF-8"?>
<!-- Generated by Pixelmator Pro 3.6.14 -->
<svg width="600" height="300" viewBox="0 0 600 300" xmlns="http://www.w3.org/2000/svg">
    <path id="Whyding-" fill="#000000" fill-rule="evenodd" stroke="none" d="M 507.130859 197.707962 L 521 142.503281 L 512.6604 146.038559 L 511.844543 149.211243 C 509.004242 146.008347 505.438751 144.406891 501.148071 144.406891 C 496.555237 144.406891 491.826416 146.446472 486.961639 150.525635 C 482.096863 154.604828 478.063019 159.726379 474.860138 165.890488 C 471.657227 172.054596 470.055786 177.976868 470.055786 183.657501 C 470.055786 187.646027 471.098236 190.924469 473.183136 193.492828 C 475.268036 196.061188 478.002594 197.345367 481.38678 197.345367 C 489.72641 197.345367 497.94516 189.791428 506.04306 174.68335 L 499.063171 204.597214 C 497.371063 211.909515 495.73941 216.955566 494.168182 219.735443 C 492.959534 222.03186 491.086151 223.965683 488.548004 225.536926 C 486.009857 227.108154 483.501923 227.893768 481.0242 227.893768 C 477.156555 227.893768 473.258667 226.020416 469.330597 222.27359 L 464.70755 228.256363 C 467.970886 230.673645 471.747894 231.882294 476.038544 231.882294 C 480.752258 231.882294 485.148682 230.718964 489.227844 228.392334 C 493.307007 226.065704 496.766754 222.726868 499.607056 218.375717 C 501.117859 216.0793 502.402039 213.541153 503.459595 210.761292 C 504.517151 207.981415 505.740906 203.630341 507.130859 197.707962 Z M 420.652588 146.763748 L 411.043884 196.982773 L 417.11731 195.079163 L 417.933136 192.631668 C 420.350433 185.198486 422.52597 179.381973 424.459808 175.181915 C 426.393616 170.981857 428.841125 166.736572 431.802307 162.445862 C 437.905945 153.501877 443.042664 149.029938 447.212463 149.029938 C 448.360687 149.029938 449.267151 149.36232 449.931915 150.027069 C 450.596649 150.691833 450.929047 151.658737 450.929047 152.927811 C 450.929047 154.136459 450.687317 156.251572 450.203857 159.273178 L 446.668579 178.49057 C 445.94339 182.297791 445.580811 185.168304 445.580811 187.102142 C 445.580811 189.942444 446.230438 192.314392 447.529724 194.218018 C 448.829041 196.121613 450.415375 197.073425 452.288757 197.073425 C 453.678711 197.073425 455.189514 196.363342 456.821167 194.943192 C 458.45282 193.523036 460.990967 190.788483 464.435608 186.739532 L 465.342072 185.742416 L 463.891724 184.473343 C 459.782349 188.945343 456.790955 191.181305 454.917542 191.181305 C 453.829773 191.181305 452.953522 190.592087 452.288757 189.413666 C 451.624023 188.235229 451.291626 186.679108 451.291626 184.745285 C 451.291626 182.811462 451.744873 180.031586 452.651367 176.40567 L 453.557831 172.870392 L 456.277283 161.811325 L 457.183746 158.004105 C 457.848511 155.465958 458.180878 153.501923 458.180878 152.111984 C 458.180878 149.634262 457.485931 147.655121 456.095978 146.17453 C 454.706055 144.693939 452.893097 143.953659 450.657104 143.953659 C 446.124695 143.953659 441.380768 146.703278 436.425354 152.202621 C 431.46991 157.701981 426.484283 165.739334 421.468414 176.315018 L 429.26416 143.047165 L 420.652588 146.763748 Z M 501.510651 146.945038 C 505.378326 146.945038 508.49057 149.211243 510.847412 153.743652 L 509.850281 157.822815 C 508.037323 165.376846 505.468964 171.903442 502.145203 177.402802 C 499.244476 182.237396 496.328613 185.984146 493.397675 188.643158 C 490.466705 191.302155 487.792603 192.631668 485.375305 192.631668 C 483.018463 192.631668 481.190399 191.770508 479.891113 190.048187 C 478.591797 188.325882 477.942169 185.953918 477.942169 182.932327 C 477.942169 178.460327 479.075256 173.3992 481.341461 167.748779 C 483.607666 162.098343 486.342224 157.39978 489.545105 153.653 C 493.473206 149.18103 497.461731 146.945038 501.510651 146.945038 Z M 366.173096 172.870392 L 390.194824 68.353165 L 380.404846 72.976212 L 365.629211 147.03569 C 362.54718 144.920563 359.223419 143.863007 355.657928 143.863007 C 350.823364 143.863007 345.973694 145.857269 341.108887 149.845779 C 336.24411 153.83429 332.240509 158.895447 329.098022 165.029327 C 325.955566 171.163208 324.384338 177.221466 324.384338 183.204269 C 324.384338 187.49498 325.38147 190.894257 327.375732 193.402176 C 329.369965 195.910095 332.089417 197.164063 335.534058 197.164063 C 341.275085 197.164063 347.197418 193.236023 353.301056 185.379822 C 356.685272 180.907822 359.162964 176.76825 360.734222 172.961029 L 359.737091 178.127975 C 358.891022 182.297821 358.468018 185.168304 358.468018 186.739532 C 358.468018 189.39856 359.132751 191.755402 360.46225 193.810089 C 361.791779 195.864777 363.453644 196.89212 365.447906 196.89212 C 366.293955 196.89212 367.064463 196.695719 367.75943 196.302917 C 368.454407 195.910095 369.557281 194.958313 371.068085 193.44751 L 374.059479 190.456116 C 374.119904 190.395691 375.29834 189.09639 377.594757 186.558258 L 378.319946 185.742416 L 376.960205 184.473343 C 376.839355 184.533783 376.748688 184.594208 376.688263 184.654633 L 376.506958 184.835938 L 373.878174 187.464722 C 371.642181 189.821579 369.738586 191 368.167358 191 C 366.95871 191 366.006897 190.395691 365.311951 189.187042 C 364.616974 187.978394 364.26947 186.407166 364.26947 184.473343 C 364.26947 182.297791 364.904022 178.430176 366.173096 172.870392 Z M 393.548798 172.870392 L 401.525848 143.047165 L 392.642334 146.763748 L 386.931488 178.49057 C 386.206329 182.418655 385.843719 185.289185 385.843719 187.102142 C 385.843719 189.942444 386.493378 192.314392 387.792664 194.218018 C 389.091949 196.121613 390.678284 197.073425 392.551697 197.073425 C 393.94162 197.073425 395.452423 196.363342 397.084076 194.943192 C 398.715769 193.523036 401.253916 190.788483 404.698517 186.739532 L 405.605011 185.742416 L 404.154633 184.473343 C 400.045258 188.945343 397.053864 191.181305 395.180481 191.181305 C 394.092712 191.181305 393.216431 190.576981 392.551697 189.368347 C 391.886932 188.159698 391.554565 186.58847 391.554565 184.654633 C 391.554565 181.693466 392.219299 177.765411 393.548798 172.870392 Z M 361.459381 147.624893 C 363.151489 148.622025 364.26947 149.936432 364.813385 151.568085 L 363.906891 156.191147 C 363.302582 158.971024 362.30545 162.657333 360.915497 167.250214 C 359.767303 170.815704 358.196075 174.260315 356.201813 177.584091 C 353.240631 182.479126 350.294586 186.225861 347.363617 188.824448 C 344.432678 191.423035 341.69812 192.722321 339.159973 192.722321 C 336.984406 192.722321 335.277222 191.846054 334.038361 190.093521 C 332.7995 188.341003 332.180054 186.014359 332.180054 183.113617 C 332.180054 179.789856 332.7995 176.088425 334.038361 172.009232 C 335.277222 167.930038 336.863556 164.168167 338.797363 160.723541 C 341.45639 156.070251 344.281586 152.474579 347.27298 149.936432 C 350.264343 147.398285 353.180206 146.129211 356.020508 146.129211 C 357.954346 146.129211 359.767303 146.627777 361.459381 147.624893 Z M 407.961853 108.963501 C 406.994934 107.996582 405.725861 107.513123 404.154633 107.513123 C 402.643829 107.513123 401.374756 108.026794 400.347412 109.054138 C 399.320068 110.081497 398.806396 111.320343 398.806396 112.770721 C 398.806396 114.16066 399.350281 115.399506 400.438049 116.487289 C 401.525848 117.575058 402.764709 118.118958 404.154633 118.118958 C 405.605011 118.118958 406.843872 117.605286 407.871216 116.577942 C 408.89856 115.550583 409.412231 114.281525 409.412231 112.770721 C 409.412231 111.199473 408.928772 109.9304 407.961853 108.963501 Z M 262.1091 228.256363 L 266.550873 222.27359 C 270.055908 226.020416 274.014221 227.893768 278.425751 227.893768 C 283.079041 227.893768 286.825806 226.050629 289.666107 222.364227 C 292.506439 218.677887 294.833069 212.634705 296.646027 204.234619 L 300.815826 185.470459 C 294.168304 193.266235 288.155304 197.164063 282.776855 197.164063 C 279.634399 197.164063 277.171783 196.197159 275.389038 194.263336 C 273.606293 192.329498 272.714935 189.730927 272.714935 186.46759 C 272.714935 184.292053 272.986877 181.904968 273.530762 179.306396 L 279.694824 146.763748 L 288.487701 143.047165 L 279.694824 179.578339 C 278.969635 182.53952 278.607056 184.745285 278.607056 186.195648 C 278.607056 188.250336 279.226471 189.927338 280.465332 191.226624 C 281.704193 192.525909 283.350983 193.175568 285.40567 193.175568 C 287.641632 193.175568 290.104248 192.193542 292.793488 190.229492 C 295.482697 188.265442 298.489197 185.319397 301.812958 181.391296 L 309.608704 146.763748 L 318.129608 143.047165 L 304.894989 196.348236 C 303.323761 202.754059 301.828064 207.769897 300.407928 211.395813 C 298.987762 215.021744 297.341003 218.043335 295.46759 220.460632 C 289.545258 228.075104 282.323639 231.882294 273.802704 231.882294 C 268.84729 231.882294 264.949402 230.673645 262.1091 228.256363 Z M 219.685806 77.780563 L 211.527481 81.225189 C 211.648346 85.697159 211.708771 88.235306 211.708771 88.83963 C 211.708771 98.44838 210.515244 108.615952 208.128174 119.342697 C 205.741119 130.069458 202.3116 140.478745 197.83963 150.570969 C 193.367645 160.663177 188.019409 170.150909 181.794907 179.034454 C 178.954605 183.083405 176.552429 186.044571 174.588394 187.917969 C 172.624344 189.791351 170.947357 190.728058 169.557419 190.728058 C 168.227921 190.728058 167.336548 189.866913 166.883301 188.144592 C 166.430069 186.422272 166.203445 183.113647 166.203445 178.218628 C 166.203445 172.840149 166.354523 164.621475 166.656693 153.562347 C 166.837982 148.304733 167.004166 143.394653 167.155243 138.832031 C 167.306335 134.269424 167.563171 129.178055 167.925766 123.557831 C 168.288345 117.937622 168.590515 113.646988 168.832245 110.685806 L 171.732971 82.131668 L 171.914276 80.046768 L 163.121414 83.853989 L 162.849472 86.029541 C 161.761688 93.825302 160.809891 99.808044 159.994049 103.977859 C 159.178223 108.147659 158.075333 112.725357 156.685394 117.711029 C 155.295456 122.696716 153.905518 127.093109 152.515579 130.90033 C 149.614853 138.99826 146.124893 147.1716 142.045731 155.420639 C 137.966568 163.669647 133.962952 170.755234 130.034866 176.677612 C 126.831963 181.572632 124.172958 185.092773 122.057831 187.238098 C 119.942711 189.383453 118.099533 190.456116 116.528305 190.456116 C 115.380096 190.456116 114.579369 189.882019 114.126129 188.733795 C 113.67289 187.585602 113.446266 185.591339 113.446266 182.751038 C 113.446266 181.300659 113.476486 180.243103 113.536919 179.578339 L 116.437653 106.062759 C 116.498085 104.310226 116.528305 102.013809 116.528305 99.173508 C 116.528305 82.917221 111.935532 74.789169 102.749794 74.789169 C 99.123871 74.789169 95.754784 76.360413 92.642532 79.502869 C 89.530281 82.64534 86.810844 87.359009 84.484207 93.643967 C 82.157578 99.92894 80.329506 107.392197 79 116.034042 L 85.798607 120.566452 C 87.248978 110.474228 89.273445 101.137619 91.872025 92.556198 C 93.564125 86.996414 95.226006 83.098587 96.857674 80.862595 C 98.489334 78.626602 100.483597 77.508621 102.840446 77.508621 C 106.708092 77.508621 108.641922 81.315796 108.641922 88.930267 C 108.641922 91.045395 108.55127 93.795059 108.369972 97.179245 L 105.106644 182.207138 L 105.106644 184.926575 C 105.106644 188.854665 105.227509 191.42303 105.469238 192.631668 C 106.375717 196.378448 108.641922 198.251846 112.267845 198.251846 C 115.349876 198.251846 118.582993 196.287811 121.967186 192.359726 C 127.949959 185.591309 133.902512 176.768311 139.82486 165.890488 C 149.191895 148.909012 156.08107 131.776657 160.492615 114.493027 L 160.311325 117.303116 C 159.767426 123.225494 159.253754 131.867172 158.770309 143.22847 C 158.28685 155.133652 158.04512 163.865982 158.04512 169.425766 C 157.98468 171.963913 157.954468 175.831528 157.954468 181.028717 C 157.954468 187.555405 158.483246 192.027344 159.540817 194.444626 C 160.598373 196.861908 162.547302 198.070557 165.387619 198.070557 C 166.958847 198.070557 168.560303 197.587097 170.191956 196.620178 C 171.823624 195.653259 173.757446 193.991394 175.993439 191.634537 C 179.438065 188.069046 183.30571 182.796387 187.59639 175.816452 C 191.88707 168.836517 195.996445 161.207031 199.92453 152.927811 C 212.91748 125.431107 219.504517 100.382278 219.685806 77.780563 Z M 211.980728 196.982773 L 236.093109 72.976212 L 245.61116 68.353165 L 220.501648 178.762512 C 220.743362 178.339478 220.864227 178.067535 220.864227 177.946686 L 222.949142 173.232971 C 226.514633 165.135056 230.986603 158.125 236.365051 152.202621 C 241.441345 146.703278 246.124832 143.953659 250.415512 143.953659 C 252.711929 143.953659 254.555099 144.693939 255.945038 146.17453 C 257.334961 147.655121 258.029938 149.634262 258.029938 152.111984 C 258.029938 153.501923 257.697571 155.465958 257.032806 158.004105 L 256.126343 161.811325 L 253.316238 172.870392 L 252.500412 176.40567 C 251.593933 180.031586 251.140686 182.811462 251.140686 184.745285 C 251.140686 186.679108 251.473068 188.235229 252.137817 189.413666 C 252.802567 190.592087 253.678833 191.181305 254.766617 191.181305 C 256.640015 191.181305 259.631378 188.945343 263.740784 184.473343 L 265.100494 185.742416 L 264.284668 186.739532 C 260.840027 190.788483 258.286774 193.523036 256.624908 194.943192 C 254.963013 196.363342 253.467316 197.073425 252.137817 197.073425 C 250.26442 197.073425 248.662979 196.076294 247.333466 194.082031 C 246.003967 192.087769 245.339218 189.761139 245.339218 187.102142 C 245.339218 185.470459 245.732025 182.599976 246.517639 178.49057 L 249.962265 159.273178 C 250.506149 156.432877 250.778091 154.317749 250.778091 152.927811 C 250.778091 151.658737 250.445724 150.691833 249.780975 150.027069 C 249.116211 149.36232 248.209732 149.029938 247.061523 149.029938 C 244.825546 149.029938 242.257172 150.344345 239.356445 152.973129 C 236.455704 155.601929 233.539856 159.242935 230.608902 163.896225 C 227.677948 168.54953 225.124695 173.519989 222.949142 178.807831 C 220.77359 184.095673 219.141922 189.519379 218.054138 195.079163 L 211.980728 196.982773 Z"/>
    <path id="AI-----" fill="#000000" fill-rule="evenodd" stroke="none" d="M 494.115601 249.538635 L 481.779846 249.538635 L 481.779846 248.288147 L 495.568878 248.288147 L 495.568878 249.302048 C 495.568878 258.866486 489.586823 264.20636 481.002533 265.220245 L 481.002533 263.935974 C 488.775757 262.989685 494.115601 258.021576 494.115601 249.538635 Z M 505.167114 247.882599 L 505.167114 256.737305 L 510 256.737305 L 510 258.021576 L 505.167114 258.021576 L 505.167114 268.498505 L 503.74762 268.498505 L 503.74762 247.882599 Z M 485.058136 268.566101 L 485.058136 276.474518 L 505.741638 276.474518 L 505.741638 277.758789 L 483.604858 277.758789 L 483.604858 268.566101 Z M 462.042633 253.053467 C 460.183868 256.16275 455.215698 258.832703 449.605499 259.576233 L 449.605499 258.224365 C 454.979187 257.548431 461.36673 254.472931 461.36673 250.214554 L 461.36673 248.119171 L 462.786163 248.119171 L 462.786163 250.214554 C 462.786163 254.472931 468.869537 257.447021 474.547394 258.224365 L 474.547394 259.576233 C 468.768158 258.798889 463.833862 256.128967 462.042633 253.053467 Z M 448.692993 265.220245 L 448.692993 263.935974 L 475.493683 263.935974 L 475.493683 265.220245 L 463.157898 265.220245 L 463.157898 271.607788 L 461.738464 271.607788 L 461.738464 265.220245 Z M 452.241608 269.681396 L 452.241608 276.474518 L 473.97287 276.474518 L 473.97287 277.758789 L 450.822174 277.758789 L 450.822174 269.681396 Z M 421.655762 262.178558 L 407.528748 262.178558 L 407.528748 248.288147 L 421.351532 248.288147 L 421.351532 249.538635 L 408.982025 249.538635 L 408.982025 260.894287 L 421.892273 260.894287 C 425.238159 260.894287 428.009521 260.319733 429.935852 258.866486 L 429.935852 247.882599 L 431.355347 247.882599 L 431.355347 264.780884 L 429.935852 264.780884 L 429.935852 260.150757 C 428.11087 261.604004 425.238159 262.178558 421.655762 262.178558 Z M 420.472839 278.367126 C 416.586212 278.367126 413.240387 277.758789 411.178802 276.339325 C 409.759308 275.393005 408.982025 274.108734 408.982025 272.452728 C 408.982025 270.762878 409.759308 269.478607 411.178802 268.532318 C 413.240387 267.112854 416.586212 266.470703 420.472839 266.470703 C 424.427063 266.470703 427.739075 267.112854 429.80069 268.532318 C 431.186371 269.478607 431.997437 270.762878 431.997437 272.452728 C 431.997437 274.108734 431.186371 275.393005 429.80069 276.339325 C 427.739075 277.758789 424.427063 278.367126 420.472839 278.367126 Z M 420.472839 267.754974 C 416.856598 267.754974 413.814941 268.363342 412.057495 269.546204 C 411.009796 270.323517 410.401428 271.236023 410.401428 272.452728 C 410.401428 273.63559 411.009796 274.581909 412.057495 275.325439 C 413.814941 276.542114 416.856598 277.150452 420.472839 277.150452 C 424.122833 277.150452 427.164551 276.542114 428.888153 275.325439 C 430.003479 274.581909 430.611847 273.63559 430.611847 272.452728 C 430.611847 271.236023 430.003479 270.323517 428.888153 269.546204 C 427.164551 268.363342 424.122833 267.754974 420.472839 267.754974 Z M 375.253021 255.250244 C 375.253021 252.783096 375.996521 250.789093 377.280853 249.504822 C 378.294708 248.558533 379.646545 248.051575 381.336365 248.051575 C 382.992432 248.051575 384.378082 248.558533 385.358185 249.504822 C 386.710052 250.789093 387.4198 252.783096 387.4198 255.250244 C 387.4198 257.75119 386.710052 259.745209 385.358185 260.961884 C 384.378082 261.941986 382.992432 262.448914 381.336365 262.448914 C 379.646545 262.448914 378.294708 261.941986 377.280853 260.961884 C 375.996521 259.745209 375.253021 257.75119 375.253021 255.250244 Z M 376.638672 255.250244 C 376.638672 257.278046 377.14563 258.967865 378.193268 260.015564 C 378.970642 260.792908 380.052124 261.232239 381.336365 261.232239 C 382.65448 261.232239 383.735962 260.792908 384.479462 260.015564 C 385.493347 258.967865 386.034088 257.278046 386.034088 255.250244 C 386.034088 253.222458 385.493347 251.566422 384.479462 250.518738 C 383.735962 249.741409 382.65448 249.302048 381.336365 249.302048 C 380.052124 249.302048 378.970642 249.741409 378.193268 250.518738 C 377.14563 251.566422 376.638672 253.222458 376.638672 255.250244 Z M 392.793427 277.251831 L 391.441589 277.251831 L 391.441589 272.925873 L 386.067902 272.925873 L 386.067902 271.641602 L 391.441589 271.641602 L 391.441589 248.051575 L 392.793427 248.051575 Z M 397.829132 247.882599 L 399.248566 247.882599 L 399.248566 277.657379 L 397.829132 277.657379 Z M 382.688263 267.450806 L 381.403992 267.450806 L 381.403992 277.691193 L 380.018341 277.691193 L 380.018341 267.450806 L 374.340485 267.450806 L 374.340485 266.200348 L 382.722046 266.200348 C 385.189209 266.200348 387.453583 265.963776 389.075806 265.085052 L 389.075806 266.335541 C 387.521179 267.248047 385.256836 267.450806 382.688263 267.450806 Z M 346.999023 264.240143 L 332.872101 264.240143 L 332.872101 248.288147 L 346.4245 248.288147 L 346.4245 249.504822 L 334.325317 249.504822 L 334.325317 255.554413 L 345.647217 255.554413 L 345.647217 256.771088 L 334.325317 256.771088 L 334.325317 262.955872 L 346.796295 262.955872 C 350.378754 262.955872 353.319 262.415131 355.279236 260.961884 L 355.279236 247.882599 L 356.69873 247.882599 L 356.69873 265.625793 L 355.279236 265.625793 L 355.279236 262.212341 C 353.454224 263.665588 350.581482 264.240143 346.999023 264.240143 Z M 355.279236 278.130554 L 355.279236 270.526306 L 334.426727 270.526306 L 334.426727 269.309631 L 356.69873 269.309631 L 356.69873 278.130554 Z M 311.242279 263.699402 L 300.224609 263.699402 L 300.224609 248.288147 L 311.242279 248.288147 Z M 309.856628 262.415131 L 309.856628 249.538635 L 301.576416 249.538635 L 301.576416 262.415131 Z M 316.109009 267.957764 L 316.109009 248.051575 L 317.494659 248.051575 L 317.494659 255.926178 L 323.307678 255.926178 L 323.307678 247.882599 L 324.727112 247.882599 L 324.727112 268.532318 L 323.307678 268.532318 L 323.307678 257.176666 L 317.494659 257.176666 L 317.494659 267.957764 Z M 325.335419 277.758789 L 302.590332 277.758789 L 302.590332 268.566101 L 304.009827 268.566101 L 304.009827 276.474518 L 325.335419 276.474518 Z M 270.213226 258.190552 L 270.213226 265.389221 L 292.248596 265.389221 L 292.248596 266.605896 L 281.095734 266.605896 L 281.095734 274.987457 L 293.56665 274.987457 L 293.56665 276.204132 L 267.103943 276.204132 L 267.103943 274.987457 L 279.710083 274.987457 L 279.710083 266.605896 L 268.827545 266.605896 L 268.827545 256.973877 L 290.457367 256.973877 L 290.457367 249.741409 L 268.827545 249.741409 L 268.827545 248.457138 L 291.843048 248.457138 L 291.843048 258.190552 Z M 228.271667 248.119171 L 228.271667 256.399323 L 249.597321 256.399323 L 249.597321 257.616028 L 226.852219 257.616028 L 226.852219 248.119171 Z M 224.723038 264.916077 L 224.723038 263.665588 L 251.523712 263.665588 L 251.523712 264.916077 Z M 228.271667 269.073059 L 228.271667 276.474518 L 250.002853 276.474518 L 250.002853 277.758789 L 226.852219 277.758789 L 226.852219 269.073059 Z M 206.709427 275.528198 L 193.697754 275.528198 L 193.697754 261.232239 L 205.256195 261.232239 L 205.256195 249.741409 L 193.697754 249.741409 L 193.697754 248.457138 L 206.675629 248.457138 L 206.675629 262.482727 L 195.083405 262.482727 L 195.083405 274.243927 L 206.878418 274.243927 C 210.359467 274.243927 213.671555 273.196228 215.564148 271.303619 L 215.564148 247.882599 L 216.983582 247.882599 L 216.983582 277.623596 L 215.564148 277.623596 L 215.564148 272.587891 C 213.8405 274.446716 210.359467 275.528198 206.709427 275.528198 Z M 183.356003 258.629913 L 183.356003 249.741409 L 161.489609 249.741409 L 161.489609 248.457138 L 184.775436 248.457138 L 184.775436 258.49472 C 184.775436 262.279938 184.302277 266.335541 183.693954 269.174438 L 182.240723 269.174438 C 182.916626 266.335541 183.356003 262.246155 183.356003 258.629913 Z M 160.002563 276.204132 L 160.002563 274.987457 L 186.465302 274.987457 L 186.465302 276.204132 Z M 120.899887 258.190552 L 120.899887 265.389221 L 142.935287 265.389221 L 142.935287 266.605896 L 131.78241 266.605896 L 131.78241 274.987457 L 144.253357 274.987457 L 144.253357 276.204132 L 117.790619 276.204132 L 117.790619 274.987457 L 130.396729 274.987457 L 130.396729 266.605896 L 119.514244 266.605896 L 119.514244 256.973877 L 141.144058 256.973877 L 141.144058 249.741409 L 119.514244 249.741409 L 119.514244 248.457138 L 142.529709 248.457138 L 142.529709 258.190552 Z M 111.808632 249.707611 L 110.389168 249.707611 L 110.389168 275.96756 L 111.808632 275.96756 Z M 87.407494 275.96756 L 89.94223 269.106842 L 102.920113 269.106842 L 105.454872 275.96756 L 106.975708 275.96756 L 97.140915 249.707611 L 95.68766 249.707611 L 85.852844 275.96756 Z M 90.381577 267.822571 L 96.397377 251.60022 L 102.413162 267.822571 Z"/>
</svg>
