<?xml version="1.0" encoding="UTF-8"?>
<!-- Generated by Pixelmator Pro 3.6.14 -->
<svg width="300" height="300" viewBox="0 0 300 300" xmlns="http://www.w3.org/2000/svg">
    <g id="g1"/>
    <g id="g2">
        <path id="Ai--10" fill="#000000" fill-rule="evenodd" stroke="none" d="M 174.355148 219.596252 L 161.664963 278.772369 L 145.335571 278.772369 C 142.040543 268.264038 136.764206 258.067505 129.506302 248.18251 C 122.248405 238.297501 114.033279 230.149094 104.860695 223.737274 C 98.805023 233.177002 92.03701 241.637009 84.556458 249.117523 C 77.075905 256.598022 69.127922 263.009949 60.712357 268.353149 C 52.296749 273.69635 43.547314 277.837372 34.463764 280.776154 C 25.380217 283.714874 16.474983 285.184296 7.747665 285.184296 C 5.343212 285.184296 2.760683 284.961639 0 284.516388 L 4.274562 274.364258 C 8.994431 274.89856 12.556572 275.165771 14.961025 275.165771 C 39.36187 275.165771 61.090706 265.637146 80.1483 246.579514 C 84.066666 242.661133 88.051804 238.141663 92.103767 233.021088 C 96.155731 227.900513 100.363457 221.911636 104.727097 215.054535 C 114.43399 199.826263 122.715919 185.57785 129.57309 172.308777 L 142.129669 148.130722 C 152.014664 129.16214 159.628693 116.316315 164.971909 109.592743 C 170.315125 102.869171 183.394058 99.507355 188.648224 99.507355 C 190.340302 99.507355 191.831848 99.863663 193.123169 100.57605 C 194.414505 101.288422 195.416275 102.334793 196.128738 103.715164 C 196.841202 105.095505 197.197372 106.631638 197.197372 108.323669 C 197.197372 109.570496 196.974792 111.396072 196.529495 113.800476 C 196.084167 117.00647 195.817032 118.742981 195.727997 119.010178 L 175.290192 215.054535 L 184.774399 215.054535 L 183.83931 219.596252 Z M 154.018326 219.596252 L 107.398697 219.596252 L 107.933052 219.996979 C 115.858871 226.052643 122.671402 232.286392 128.37085 238.698288 C 134.070328 245.110107 139.636093 252.768707 145.06842 261.674133 Z M 111.005402 215.054535 L 154.953384 215.054535 L 173.921814 124.219788 C 174.545242 121.280991 174.856873 119.767105 174.856873 119.67807 C 175.39119 117.896912 175.658371 116.294098 175.658371 114.869156 C 175.658371 112.642746 174.678787 111.529663 172.719574 111.529663 C 170.315125 111.529663 167.420914 114.067657 164.03685 119.143692 C 160.652786 124.219788 154.775314 134.638931 146.404236 150.40155 C 145.157455 152.806046 142.619492 157.659424 138.790161 164.961853 C 135.584213 170.750336 133.847641 173.956238 133.580505 174.57959 L 120.756775 197.956223 C 115.413521 207.663071 112.163086 213.362427 111.005402 215.054535 Z"/>
        <path id="Ai--4" fill="#000000" fill-rule="evenodd" stroke="none" d="M 285.106201 91.878998 L 255.980591 200.76918 C 251.126221 218.641693 248.699173 232.983826 248.699173 243.795685 C 248.699173 250.856491 249.912689 256.593201 252.339905 261.006226 C 254.767059 265.41925 257.966461 267.625732 261.93811 267.625732 C 268.77832 267.625732 279.700287 259.461792 294.704437 243.133713 L 300 247.767319 L 296.690247 251.408051 C 284.113312 266.19162 274.846069 276.175812 268.888519 281.361115 C 262.93103 286.546448 257.414856 289.138977 252.339905 289.138977 C 245.499664 289.138977 239.707779 285.663757 234.963821 278.713348 C 230.219803 271.762848 227.847885 263.102448 227.847885 252.731979 C 227.847885 246.112488 229.171768 235.631744 231.81955 221.28949 L 252.670883 105.448898 Z"/>
        <path id="Ai--9" fill="#000000" fill-rule="evenodd" stroke="none" d="M 271.363739 24.379486 C 277.100677 24.379486 281.734131 26.144562 285.264618 29.675049 C 288.795105 33.205536 290.560181 37.838959 290.560181 43.575836 C 290.560181 49.092224 288.684692 53.725677 284.933624 57.47673 C 281.182587 61.227859 276.659302 63.103271 271.363739 63.103271 C 266.288727 63.103271 261.765564 61.117447 257.793823 57.145737 C 253.822205 53.174103 251.836304 48.650833 251.836304 43.575836 C 251.836304 38.280273 253.711792 33.757111 257.46286 30.006012 C 261.213989 26.254852 265.847443 24.379486 271.363739 24.379486 Z"/>
        <path id="H--4" fill="#000000" fill-rule="evenodd" stroke="none" d="M 147.064484 55.195236 C 147.064484 55.195236 144.959473 56.052521 144.959473 56.052521 C 139.693024 58.38237 134.441132 59.951355 129.203629 60.759583 C 123.96611 61.567795 119.329704 61.577682 115.294121 60.78949 C 112.942848 60.336792 110.480309 59.565674 107.906441 58.476166 C 105.332634 57.386673 102.816666 56.051041 100.358566 54.469238 C 97.900497 52.887543 95.581917 51.106613 93.402824 49.126572 C 91.91983 47.779068 90.450943 46.172836 88.996185 44.307785 L 93.65229 42.102325 C 96.132568 46.365692 98.704353 49.707352 101.367676 52.127335 C 104.696854 55.152405 108.645065 57.191986 113.212463 58.246262 C 117.779869 59.300476 122.371696 59.26358 126.988174 58.135468 C 133.445862 56.562134 141.014557 53.309937 149.694504 48.378738 C 151.142197 47.575989 153.516541 46.148682 156.817474 44.096863 C 160.118439 42.045105 163.256638 40.035553 166.232178 38.068176 C 169.207764 36.100861 171.647507 34.434326 173.551559 33.068634 L 182.358261 26.568878 L 183.264862 25.844757 L 190.665573 28.006989 C 188.200256 30.11203 185.116043 32.442169 181.412842 34.997528 C 177.709595 37.552856 173.798355 40.109161 169.678879 42.666473 C 165.559418 45.223862 161.461411 47.651169 157.384735 49.948669 C 153.308029 52.24614 149.965836 53.948074 147.358017 55.054657 Z"/>
        <path id="Ai--8" fill="#000000" fill-rule="evenodd" stroke="none" d="M 190.967987 24.379486 C 196.704941 24.379486 201.338394 26.144562 204.868866 29.675049 C 208.399353 33.205536 210.164444 37.838959 210.164444 43.575836 C 210.164444 49.092224 208.28894 53.725677 204.537888 57.47673 C 200.786835 61.227859 196.26355 63.103271 190.967987 63.103271 C 185.89299 63.103271 181.369812 61.117447 177.398087 57.145737 C 173.426453 53.174103 171.440552 48.650833 171.440552 43.575836 C 171.440552 38.280273 173.31604 33.757111 177.067108 30.006012 C 180.818253 26.254852 185.451691 24.379486 190.967987 24.379486 Z"/>
    </g>
</svg>
